PathFileType	4	(X/Y/Z)	C:/Users/beibeiliu/ov580/test_trc/User3\sequence.39_training_dense_left.trc
DataRate	CameraRate	NumFrames	NumMarkers	Units	OrigDataRate	OrigDataStartFrame	OrigNumFrames
120	120	11	19	mm	120	29	84
Frame#	Time	ThumbCMC			ThumbMCP			ThumbIP			ThumbTip			IndexMCP			IndexPIP			IndexTip			MiddleMCP			MiddlePIP			MiddleTip			RingMCP			RingPIP			RingTip			PinkyMCP			PinkyPIP			PinkyTip			BackHand1			BackHand2			BackHand3	
		X0	Y0	Z0	X1	Y1	Z1	X2	Y2	Z2	X3	Y3	Z3	X4	Y4	Z4	X5	Y5	Z5	X6	Y6	Z6	X7	Y7	Z7	X8	Y8	Z8	X9	Y9	Z9	X10	Y10	Z10	X11	Y11	Z11	X12	Y12	Z12	X13	Y13	Z13	X14	Y14	Z14	X15	Y15	Z15	X16	Y16	Z16	X17	Y17	Z17	X18	Y18	Z18	
28	0.233333	-150.589	16.7461	40.2824	-122.227	15.8805	22.6878	-101.105	6.85696	-0.947409	-88.7373	-9.86541	-13.3445	-160.692	3.6017	-33.1938	-144.609	8.039	-56.4851	-115.563	10.5311	-71.6109	-163.342	-19.0396	-34.8257	-144.601	-18.2189	-65.2915	-114.604	-16.7588	-75.3437	-150.084	-39.4535	-28.5892	-125.836	-37.0835	-47.6099	-97.9048	-31.1268	-42.8645	-147.646	-57.793	-8.54328	-128.373	-62.4905	-28.9166	-103.372	-56.2844	-36.9875	-176.735	-42.4203	20.5973	-182.954	-39.5111	55.0487	-185.191	-8.99763	34.0648	
29	0.241667	-154.074	16.1225	44.0922	-126.111	16.2053	19.7809	-102.969	11.7206	-2.36747	-89.9238	-10.1794	-13.97	-163.018	0.353394	-30.7686	-147.303	9.77007	-56.6025	-120.062	17.4273	-70.162	-162.949	-26.6569	-36.1996	-144.073	-22.2883	-62.8707	-107.385	-13.2632	-70.8943	-148.213	-40.2781	-25.9391	-122.895	-37.6519	-43.0435	-94.5706	-29.5256	-33.276	-143.61	-55.8441	-7.26973	-124.218	-59.3462	-28.5588	-99.8619	-48.3173	-33.3835	-175.521	-39.4192	25.868	-179.412	-40.1509	53.5149	-186.002	-9.99186	34.9442	
30	0.25	-158.732	9.99102	40.9277	-130.1	18.3524	16.8505	-110.307	6.3367	0.674915	-97.0536	-16.0312	-10.6051	-166.327	-0.00170529	-34.2289	-152.164	3.09502	-55.5609	-124.111	11.3093	-72.2367	-163.13	-32.4287	-31.7598	-143.632	-29.7798	-61.2611	-110.121	-19.5609	-64.8536	-147.435	-46.0854	-25.6754	-119.131	-42.7798	-39.6539	-96.5356	-23.9355	-28.0022	-140.059	-61.2602	-6.43877	-121.932	-62.6161	-23.3546	-94.4204	-47.5597	-30.0532	-174.587	-49.862	24.4081	-179.147	-46.9505	56.1172	-187.385	-17.7049	34.3952	
31	0.258333	-160.227	10.9842	43.3239	-130.462	20.0898	18.2527	-112.256	8.5245	-0.10405	-95.4689	-10.6656	-13.4938	-166.265	-4.30902	-33.793	-153.875	5.59684	-56.0031	-129.358	13.281	-72.1394	-163.791	-31.646	-36.1681	-144.201	-28.2458	-61.5092	-109.619	-16.3419	-67.775	-146.909	-49.0018	-21.9409	-124.858	-44.1583	-40.3252	-96.5367	-27.4033	-30.3106	-139.356	-64.2144	-2.05919	-119.313	-66.3193	-23.5252	-98.5061	-55.3047	-30.129	-175.086	-49.3336	25.7686	-179.364	-45.5844	56.9901	-187.25	-14.2802	33.359	
32	0.266667	-159.593	11.7183	41.4059	-132.475	20.8029	19.7209	-109.797	15.8055	-2.11132	-96.3387	-4.70818	-13.866	-168.288	-1.56066	-29.7195	-152.875	4.46962	-57.375	-129.727	10.7008	-73.1858	-163.58	-32.2162	-33.3771	-148.037	-29.5861	-62.6869	-114.666	-17.2367	-73.2629	-150.11	-46.4167	-24.129	-127.601	-46.4949	-43.7121	-98.6418	-31.9299	-39.6007	-138.147	-65.5292	-4.3576	-122.851	-64.955	-25.5267	-97.9462	-56.9556	-35.8791	-174.289	-49.8983	23.8512	-178.837	-45.5921	55.7995	-184.554	-19.5613	34.8695	
33	0.275	-164.303	14.7256	40.0589	-136.194	24.5898	16.7259	-112.478	20.4978	-6.83778	-97.815	6.51287	-15.7858	-168.177	-7.1088	-32.8319	-154.731	0.75399	-59.1844	-131.94	10.6227	-74.4524	-164.815	-31.5988	-38.105	-150.564	-29.7824	-64.196	-122.327	-18.4869	-79.8263	-149.878	-46.7142	-27.9433	-130.059	-46.0972	-46.688	-99.7257	-31.5806	-48.9923	-136.595	-66.6349	-9.25011	-121.865	-65.2825	-27.0945	-100.083	-63.8975	-39.5228	-175.162	-48.2217	21.7567	-178.847	-48.3662	49.9808	-188.248	-21.6805	31.3731	
34	0.283333	-169.895	9.78123	38.7956	-143.195	25.2454	16.1818	-121.802	22.1715	-5.23513	-104.012	7.55138	-18.5936	-173.555	-10.5345	-33.1066	-156.767	-2.41241	-62.252	-139.459	5.93708	-75.0225	-166.587	-36.2021	-39.7999	-149.815	-32.9855	-66.3975	-121.227	-17.6595	-82.4775	-148.596	-51.2376	-26.4167	-128.73	-43.0887	-49.7689	-100.381	-27.2056	-50.3581	-135.183	-64.5055	-4.38248	-118.987	-64.4964	-28.4357	-100.062	-56.6756	-42.6535	-173.825	-52.2236	22.217	-177.228	-52.3824	54.4186	-189.103	-27.8919	31.1603	
35	0.291667	-174.466	5.11013	39.4323	-149.248	16.5268	10.8716	-128.479	13.4623	-7.74658	-108.608	0.632848	-19.3919	-177.692	-19.1806	-34.9808	-163.917	-6.9543	-63.5328	-145.698	1.95386	-75.5515	-162.85	-46.9247	-38.6046	-149.186	-36.9451	-65.4919	-123.134	-18.0909	-79.8099	-143.403	-54.5505	-25.5069	-122.141	-42.1033	-46.5736	-101.887	-21.2377	-42.9955	-130.276	-66.9137	-9.04905	-114.068	-61.8297	-28.535	-95.7128	-51.4763	-37.6922	-169.2	-61.6763	22.0139	-173.574	-60.5148	53.9651	-188.435	-34.7055	33.6613	
36	0.3	-177.359	-1.61031	37.4979	-152.684	9.39106	9.73251	-131.083	7.71599	-9.12061	-108.349	-1.01659	-23.9406	-174.602	-30.7868	-35.0614	-166.118	-21.7678	-60.6675	-146.551	-7.62898	-76.9684	-161.713	-52.8	-35.5386	-149.606	-44.3433	-63.4955	-120.692	-25.54	-75.5938	-139.429	-57.7305	-22.4746	-120.412	-45.0099	-41.9663	-100.505	-14.8088	-35.9196	-126.337	-66.3633	-8.68007	-111.54	-59.9006	-26.4231	-90.7137	-44.2119	-36.105	-162.84	-67.6924	27.08	-169.778	-65.4725	53.9265	-186.796	-42.8856	33.4629	
37	0.308333	-175.204	-6.26464	35.7132	-152.155	6.84044	8.12728	-130.851	7.1179	-9.26915	-108.526	-1.33613	-23.8457	-173.13	-33.533	-38.7562	-164.712	-22.8423	-63.7241	-148.054	-5.84476	-78.5441	-158.04	-56.0965	-33.34	-144.862	-48.0675	-63.0145	-118.84	-27.1221	-74.2284	-135.456	-59.8993	-22.2917	-116.389	-41.3229	-43.019	-95.9225	-15.7503	-32.6598	-123.658	-69.2096	-2.83866	-106.55	-62.3693	-23.726	-93.7549	-45.4765	-36.1213	-163.79	-66.3073	28.0816	-164.904	-69.3342	56.3238	-188.023	-44.0233	31.0088	
38	0.316667	-174.018	-7.22186	36.691	-152.232	12.3199	10.1862	-130.146	11.9359	-11.9338	-110.062	1.44255	-20.3953	-174.325	-31.42	-34.2993	-166.359	-18.0281	-63.7081	-146.167	-5.94514	-78.9183	-161.09	-51.6978	-35.261	-144.559	-46.1735	-64.4579	-116.724	-24.0891	-77.6948	-137.251	-56.3893	-25.8795	-116.583	-43.1521	-44.3654	-97.7168	-17.9751	-38.4086	-122.737	-66.6221	-7.04835	-105.139	-62.9254	-24.7476	-86.7754	-43.123	-38.2197	-158.737	-66.8296	27.4365	-166.569	-64.8292	53.9236	-187.68	-43.706	31.8004	
